<?xml version="1.0" encoding="iso-8859-1"?>
<!-- Generator: Adobe Illustrator 19.0.0, SVG Export Plug-In . SVG Version: 6.00 Build 0)  -->
<svg xmlns="http://www.w3.org/2000/svg" xmlns:xlink="http://www.w3.org/1999/xlink" version="1.1" id="Layer_1" x="0px" y="0px" viewBox="0 0 419.127 419.127" style="enable-background:new 0 0 419.127 419.127;" xml:space="preserve" width="512" height="512">
<g>
	<path style="fill:#61ACD2;" d="M259.238,352.008c-5.677-7.009-13.598-18.721-19.099-34.713l-4.24-12.33l12.913,1.805   c6.426,0.898,12.943,1.353,19.373,1.353c5.457,0,11.052-0.589,16.627-1.751c4.271-0.895,8.634-2.154,12.96-3.74l8.647,12.92   c-13.282,14.476-25.163,26.952-35.313,37.083l-6.281,6.271L259.238,352.008z"/>
	<path style="fill:#61ACD2;" d="M335.992,128.761c-23.032-11.498-45.846-17.328-67.807-17.328c-42.639,0-78.143,6.276-102.675,18.15   l-9.153-12.846c15.773-15.835,40.8-29.08,74.385-39.364c33.787-10.344,67.177-14.79,79.964-16.221l5.396-0.604l42.301,79.399   L335.992,128.761z"/>
	<path style="fill:#E46A53;" d="M268.185,308.123c-26.497,0-53.05-7.63-76.786-22.064c-8.94-5.446-17.383-11.812-25.097-18.924   c-5.255-4.817-10.228-10.081-14.762-15.629c-1.742-2.137-4.299-5.845-6.771-9.432c-7.565-10.933-16.991-24.553-23.417-26.736   c-5.951-2.03-10.144-2.895-14.027-2.895c-5.117,0-9.91,1.438-16.545,4.965c-15.11,8.032-26.671,21.415-37.852,34.356   c-8.603,9.975-16.676,19.335-25.674,25.596L6.371,291.89l8.81-23.867c18.782-50.886,19.009-111.837,0.606-163.044L7.118,80.857   l20.851,14.908c12.715,9.092,23.478,22.674,33.887,35.81c13.464,16.99,26.181,33.039,41.961,38.651   c1.465,0.524,2.99,0.788,4.549,0.788c4.218,0,8.8-1.87,14.008-5.716c5.391-3.988,10.771-9.545,15.976-14.919l0.191-0.198   c5.374-5.531,10.45-10.756,15.242-13.946c24.352-16.224,63.912-24.801,114.403-24.801c29.107,0,59.438,10.157,90.15,30.189   c23.356,15.245,40.618,32.183,48.829,40.923l4.067,4.329l-2.967,5.145c-13.615,23.614-62.757,101.646-123.462,114.354   C279.218,307.535,273.63,308.123,268.185,308.123z"/>
	<g>
		<circle cx="346.106" cy="191.935" r="8.257"/>
		<path d="M192.497,167.705c-3.319,0-6.42-2.08-7.563-5.393c-1.441-4.177,0.777-8.731,4.954-10.171    c12.114-4.179,26.874-7.167,43.87-8.88c4.385-0.451,8.319,2.761,8.763,7.157s-2.762,8.319-7.157,8.762    c-15.767,1.59-29.312,4.311-40.259,8.086C194.242,167.564,193.361,167.705,192.497,167.705z M312.043,167.688    c-1.074,0-2.166-0.218-3.213-0.677c-13.407-5.888-26.371-9.038-38.532-9.362c-4.417-0.118-7.902-3.793-7.784-8.21    c0.118-4.417,3.814-7.889,8.21-7.784c14.242,0.38,29.228,3.982,44.54,10.707c4.046,1.776,5.885,6.496,4.108,10.542    C318.055,165.901,315.121,167.688,312.043,167.688z"/>
		<path d="M240.874,279.016c-2.199,0-4.3-0.212-6.303-0.636c-2.728-0.577-4.958-2.533-5.887-5.161    c-6.165-17.447-5.748-31.159,1.354-44.459c2.082-3.897,6.928-5.369,10.825-3.289c3.897,2.082,5.369,6.928,3.288,10.825    c-4.299,8.051-4.937,16.035-1.946,26.684c11.12-0.731,28.895-10.693,48.974-27.651c3.375-2.851,8.423-2.427,11.274,0.95    c2.851,3.375,2.425,8.423-0.95,11.273C276.745,268.463,256.393,279.015,240.874,279.016z"/>
		<path d="M417.225,181.733c-0.84-0.99-20.35-23.81-51.29-44.67l-42.74-80.22c-1.51-2.82-4.54-4.48-7.73-4.21    c-6.98,0.58-168.74,14.97-185.29,94.68c-7.37,7.54-15.88,15.7-21.81,15.7c-0.65,0-1.26-0.11-1.87-0.32    c-13.61-4.85-25.64-20.02-38.37-36.09c-16.43-20.74-33.43-42.18-58.28-48.07c-3-0.71-6.14,0.37-8.07,2.77    c-1.94,2.4-2.32,5.7-0.99,8.48c27.52,57.35,27.52,134.42,0,191.77c-1.25,2.61-0.99,5.7,0.68,8.07c1.68,2.37,4.51,3.65,7.39,3.34    c21.03-2.26,35.8-19.36,50.08-35.91c10.71-12.41,21.79-25.24,35.6-32.58c5.39-2.87,9.09-4.03,12.79-4.03    c2.95,0,6.37,0.73,11.41,2.45c4.24,1.74,14.9,17.16,19.46,23.74c2.81,4.07,5.24,7.59,7.15,9.92c4.72,5.8,9.96,11.34,15.54,16.47    c8.06,7.44,16.93,14.12,26.35,19.86c13.51,8.22,27.9,14.33,42.69,18.22c8.73,33.4,28.85,52.44,29.75,53.28    c1.54,1.43,3.5,2.14,5.45,2.14c2.01,0,4.03-0.75,5.58-2.26c27.76-26.96,64.41-68.37,78.96-85.02    c40.37-35.93,66.94-85.58,68.54-88.6C419.725,187.753,419.345,184.223,417.225,181.733z M233.085,85.023    c33.25-10.18,66.09-14.53,78.51-15.92l27.97,52.5c-24.18-12.07-48.1-18.17-71.38-18.17c-44.2,0-80.48,6.52-106.16,18.95    C179.765,104.573,208.265,92.623,233.085,85.023z M265.455,346.973c-4.99-6.16-12.55-17.16-17.75-32.28    c6.8,0.95,13.64,1.43,20.48,1.43c5.98,0,12.12-0.64,18.26-1.92c4.77-1,9.47-2.37,14.08-4.06    C289.055,322.643,276.725,335.723,265.455,346.973z M283.165,298.543c-5.05,1.05-10.09,1.58-14.98,1.58    c-25.04,0-50.15-7.23-72.63-20.9c-8.52-5.19-16.53-11.24-23.83-17.97c-5.04-4.62-9.74-9.61-13.99-14.81    c-1.5-1.84-3.87-5.27-6.38-8.91c-10.83-15.65-19.13-26.95-27.43-29.77c-6.83-2.33-11.79-3.32-16.6-3.32    c-6.44,0-12.51,1.76-20.3,5.9c-16.46,8.75-28.53,22.74-40.21,36.26c-8.34,9.67-15.98,18.52-24.13,24.19    c19.33-52.37,19.54-115.9,0.63-168.52c11.79,8.43,22.15,21.5,32.27,34.27c14.2,17.92,27.61,34.84,45.55,41.22    c2.32,0.83,4.76,1.25,7.23,1.25c6.68,0,12.87-2.93,18.76-7.28c5.88-4.35,11.48-10.12,16.97-15.79c5.14-5.29,9.99-10.3,14.12-13.05    c23.04-15.35,61.07-23.46,109.97-23.46c27.52,0,56.39,9.72,85.78,28.89c23.12,15.09,40.22,32.09,47.37,39.7    C389.595,208.383,341.255,286.383,283.165,298.543z"/>
	</g>
</g>















</svg>
