<?xml version="1.0" encoding="iso-8859-1"?>
<!-- Generator: Adobe Illustrator 19.0.0, SVG Export Plug-In . SVG Version: 6.00 Build 0)  -->
<svg xmlns="http://www.w3.org/2000/svg" xmlns:xlink="http://www.w3.org/1999/xlink" version="1.1" id="Layer_1" x="0px" y="0px" viewBox="0 0 435.999 435.999" style="enable-background:new 0 0 435.999 435.999;" xml:space="preserve" width="512" height="512">
<g>
	<path style="fill:#E46A53;" d="M283.625,135.008c0,0,9.703-0.837,11.424-0.837c19.716,0,38.25,7.676,52.187,21.613l80.768,80.757   l-85.801,29.788c-15.733,5.456-32.146,8.222-48.784,8.222c-11.224,0-22.464-1.28-33.408-3.804l-4.694-1.083L81.44,223.786v-49.955   L283.625,135.008z"/>
	<path style="fill:#F4A026;" d="M91,142.499l146.959-30.687c4.554-0.87,9.208-1.311,13.836-1.311c12.606,0,25.096,3.269,36.12,9.452   l20.835,11.687c0,0-26.398,3.618-27.665,3.854L113.83,167.614L91,142.499z"/>
	<path style="fill:#F4A026;" d="M225.932,299.717c8.532-8.213,16.911-17.178,24.905-26.647l3.181-3.769l4.796,1.149   c9.091,2.179,18.467,3.5,27.869,3.928l2.994,15.253c-19.961,9.23-38.602,17.084-55.404,23.345L225.932,299.717z"/>
	<path style="fill:#F4A026;" d="M55.031,266.507l19.961-8.382c18.197-7.641,45.416-19.087,49.411-20.812l2.446-1.561l99.146,26.116   l-16.079,9.778c-14.07,8.556-34.614,20.019-52.585,26.04l-2.487,0.833L55.031,266.507z"/>
	<polygon style="fill:#F4A026;" points="8,136.502 81.44,173.823 81.44,223.786 8,249.497  "/>
	<g>
		<circle cx="334" cy="196.821" r="8"/>
		<path d="M433.66,230.891l-80.76-80.76c-11.72-11.72-26.36-19.43-42.28-22.48c-0.28-0.42-0.59-0.82-0.96-1.19    c-19.21-19.2-46.6-27.61-73.28-22.49c-0.04,0.01-0.08,0.01-0.12,0.02l-146.9,30.68c-2.8,0.59-5.08,2.63-5.97,5.36    c-0.89,2.73-0.24,5.73,1.69,7.85l13.24,14.56l-15.7,3.01l-71-36.08c-2.48-1.26-5.43-1.14-7.8,0.31c-2.37,1.46-3.82,4.04-3.82,6.82    v113c0,2.59,1.26,5.02,3.37,6.52c1.37,0.98,2.99,1.48,4.63,1.48c0.89,0,1.78-0.15,2.64-0.45l71.13-24.9l21.2,5.58l-51.06,21.39    c-3.09,1.3-5.05,4.38-4.9,7.73c0.14,3.34,2.36,6.24,5.55,7.27l99.79,32c0.8,0.25,1.62,0.38,2.44,0.38c0.8,0,1.6-0.12,2.37-0.36    c27.41-8.5,60.37-29.56,69.75-35.76l12.78,3.37c-26.55,30.08-48.84,44.9-49.07,45.06c-3.27,2.14-4.51,6.32-2.95,9.9    c1.3,2.96,4.21,4.79,7.33,4.79c0.64,0,1.29-0.08,1.94-0.24c55.57-13.89,130.61-53.08,133.78-54.74c1.44-0.74,4.23-1.56,5.76-2    c2.8-0.8,5.59-1.68,8.35-2.64l85.79-29.78c2.61-0.9,4.56-3.08,5.18-5.76C436.41,235.651,435.6,232.841,433.66,230.891z     M73.44,218.111L16,238.221v-88.68l57.44,29.19V218.111z M239.46,119.671c15.44-2.95,31.17-0.24,44.54,7.26    c-1.47,0.2-2.93,0.43-4.38,0.7l-162.89,31.28l-10.4-11.44L239.46,119.671z M154.79,290.101l-76.7-24.6    c0,0,49.75-20.89,50.11-21.12l77.56,20.43C192.44,272.911,172.28,284.241,154.79,290.101z M231.48,305.481    c7.75-7.46,16.42-16.53,25.47-27.25c9.64,2.31,19.48,3.69,29.37,4.14C270.36,289.751,250.91,298.241,231.48,305.481z     M339.58,258.771c-14.88,5.16-30.41,7.78-46.16,7.78c-10.64,0-21.25-1.21-31.61-3.6c-4.01-15.07-12.09-50.4-9.81-65.61    c0.66-4.37-2.35-8.45-6.72-9.1c-4.37-0.65-8.45,2.35-9.1,6.72c-2.49,16.59,3.91,46.84,7.96,63.41l-46.87-12.34    c-2.64-8.86-8.39-31.43-3.93-47.78c1.16-4.26-1.35-8.66-5.61-9.82c-4.27-1.16-8.66,1.35-9.83,5.61    c-4.28,15.71-1.4,34.69,1.56,47.3l-90.02-23.72v-37.18l54.08-10.39c-1.99,9.29-3.99,23.11-2.69,37.45    c0.38,4.16,3.87,7.28,7.96,7.28c0.24,0,0.48-0.01,0.73-0.03c4.4-0.4,7.64-4.29,7.24-8.69c-1.49-16.47,2.22-32.68,4.02-39.32    l49.6-9.52c-2.61,13.74-5.88,36.51-2.86,53.12c0.7,3.86,4.07,6.57,7.86,6.57c0.47,0,0.95-0.05,1.44-0.13    c4.35-0.79,7.23-4.96,6.44-9.31c-3.05-16.78,1.83-42.87,4.12-53.51l45.8-8.8c-3.9,17.59-10.34,51.79-6.04,69.85    c0.87,3.68,4.15,6.15,7.77,6.15c0.62,0,1.24-0.07,1.86-0.22c4.3-1.02,6.96-5.34,5.93-9.63c-3.68-15.46,3.51-52,7.55-68.95    c1.6-0.12,3.2-0.19,4.8-0.19c17.58,0,34.1,6.84,46.53,19.27l71.74,71.73L339.58,258.771z"/>
	</g>
</g>















</svg>
