<?xml version="1.0" encoding="iso-8859-1"?>
<!-- Generator: Adobe Illustrator 19.0.0, SVG Export Plug-In . SVG Version: 6.00 Build 0)  -->
<svg xmlns="http://www.w3.org/2000/svg" xmlns:xlink="http://www.w3.org/1999/xlink" version="1.1" id="Layer_1" x="0px" y="0px" viewBox="0 0 463.001 463.001" style="enable-background:new 0 0 463.001 463.001;" xml:space="preserve" width="512" height="512">
<g>
	<path style="fill:#F4A026;" d="M214.449,437.33c-9.834,0-18.433-2.349-25.555-6.98c-50.156-32.615-71.828-107.313-78.817-137.915   l-3.413-14.943l75.683,30.596v64.465v-64.464l54.529,22.05v66.404V330.14l72.239,29.207c6.207,2.485,12.799,3.8,19.567,3.898   l22.197,0.322l-17.3,13.912c-12.145,9.766-24.073,18.542-35.455,26.084C264.342,425.968,236.188,437.33,214.449,437.33z"/>
	<path style="fill:#F4A026;" d="M108.609,220.802c-1.141-9.87-4.286-45.043,3.123-83.281   c10.869-56.103,38.298-92.246,81.523-107.426c8.238-2.893,16.67-4.359,25.061-4.359c71.061,0,124.941,103.833,144.809,148.475   l8.294,18.635l-18.751-8.028c-24.673-10.563-51.049-16.012-78.396-16.195l-7.946-0.053v0.071l-7.003,0.879   c-10.996,1.381-23.455,4.343-37.029,8.803l-10.497,3.449v0.168l-5.131,1.971c-11.905,4.574-24.65,10.178-37.881,16.657   l-11.509,5.636v0.13l-4.275,2.25c-13.642,7.177-25.113,13.839-32.334,18.163l-10.635,6.369L108.609,220.802z"/>
	<path style="fill:#61ACD2;" d="M329.454,363.268c-6.993,0-13.835-1.317-20.337-3.916l-201.646-81.534l-0.359-0.19   c-21.103,11.865-46.301,25.527-78.484,37.317l-18.36,6.726l8.381-17.667c14.372-30.299,14.372-65.054,0-95.353l-8.381-17.667   l18.36,6.727c32.021,11.731,56.841,25.167,77.591,36.839l0.461,0.259l0.422,0.317c1.019-0.656,103.087-66.523,165.765-66.523   c51.595,0,97.841,17.845,137.453,53.04c21.361,18.973,34.883,38.082,41.041,47.783l3.773,5.945l-90.617,75.237   C354.672,358.773,342.221,363.268,329.454,363.268z"/>
	<g>
		<circle cx="370.001" cy="250.733" r="8"/>
		<path d="M462.056,271.713c-0.61-1.15-15.33-28.29-45.95-55.63c-10.26-9.17-23.09-18.96-38.45-27.73    c-0.07-0.26-0.14-0.51-0.24-0.76c-0.77-2.04-19.26-50.54-50.83-95.43c-18.83-26.77-38.42-46.61-58.24-58.98    c-25.79-16.11-51.95-19.69-77.74-10.63c-45.45,15.95-75.44,55.18-86.73,113.45c-6.87,35.47-5.13,68.88-3.07,86.37    c-24.77-13.64-52.73-27.52-90.42-39.28c-3.29-1.02-6.87,0.17-8.89,2.98c-2.01,2.8-1.99,6.57,0.03,9.36    c26.46,36.42,26.46,85.37,0,121.79c-2.02,2.79-2.04,6.56-0.03,9.36c1.53,2.14,3.98,3.34,6.51,3.34c0.79,0,1.59-0.12,2.38-0.36    c37.93-11.83,66.01-25.82,90.9-39.55c6.28,29.85,27.95,111.09,83.25,147.04c8.48,5.52,18.42,8.27,29.79,8.27    c23.46,0,52.98-11.72,88.23-35.1c36.19-23.99,65.42-51.71,68.44-54.6l89.11-73.98    C463.036,279.213,463.846,275.063,462.056,271.713z M119.586,139.043c10.29-53.11,35.97-87.23,76.32-101.4    c77.54-27.22,140.03,95.15,159.91,139.82c-22.89-9.8-50.06-16.63-81.49-16.84v-64c0-4.42-3.58-8-8-8c-4.42,0-8,3.58-8,8v64.96    c-12.26,1.54-25.35,4.81-38.53,9.14V67.183c0-4.42-3.58-8-8-8c-4.42,0-8,3.58-8,8v109.26c-13.3,5.11-26.4,11-38.53,16.94v-81.49    c0-4.42-3.58-8-8-8c-4.42,0-8,3.58-8,8v89.43c0,0.06,0.01,0.12,0.01,0.18c-13.19,6.94-24.52,13.47-32.72,18.38    C114.596,202.923,113.376,171.093,119.586,139.043z M293.706,396.893c-31.98,21.21-75.37,43.06-100.45,26.75    c-47.52-30.9-68.41-102.47-75.38-132.99l56.47,22.83v59.07c0,4.41,3.59,8,8,8c4.42,0,8-3.59,8-8v-52.6l38.53,15.58v61.01    c0,4.42,3.59,8,8,8c4.42,0,8-3.58,8-8v-54.54l61.24,24.76c7.27,2.91,14.88,4.37,22.45,4.48    C318.406,379.413,306.456,388.443,293.706,396.893z M359.406,344.453c-13.24,10.98-31.38,13.84-47.32,7.47l-201.24-81.37    c-2.33-1.23-5.21-1.3-7.67,0.09c-22.07,12.43-46.1,25.36-77.3,36.79c15.35-32.36,15.35-69.85,0-102.21    c30.79,11.28,54.59,24.02,76.42,36.3c2.61,1.96,6.26,2.2,9.16,0.32c1-0.65,101.27-65.24,161.41-65.24    c49.58,0,94.04,17.17,132.14,51.02c20.75,18.43,33.88,37.08,39.6,46.09L359.406,344.453z"/>
		<path d="M298.414,239.755l-136,10c-4.406,0.324-7.716,4.159-7.392,8.565c0.31,4.207,3.818,7.414,7.97,7.414    c0.197,0,0.396-0.007,0.596-0.022l136-10c4.406-0.324,7.716-4.159,7.392-8.565C306.655,242.74,302.821,239.426,298.414,239.755z"/>
	</g>
</g>















</svg>
