<?xml version="1.0" encoding="iso-8859-1"?>
<!-- Generator: Adobe Illustrator 19.0.0, SVG Export Plug-In . SVG Version: 6.00 Build 0)  -->
<svg xmlns="http://www.w3.org/2000/svg" xmlns:xlink="http://www.w3.org/1999/xlink" version="1.1" id="Layer_1" x="0px" y="0px" viewBox="0 0 451 451" style="enable-background:new 0 0 451 451;" xml:space="preserve" width="512" height="512">
<g>
	<path style="fill:#3EBD9E;" d="M297.005,231.905l60.315-54.189l85.904,47.311l-6.384,7.467   c-17.679,20.678-39.305,36.782-64.275,47.864l-4.145,1.839L297.005,231.905z"/>
	<path style="fill:#3EBD9E;" d="M212.001,297.904l2.865-3.771l4.663,0.7c17.311,2.582,34.235,4.016,50.304,4.264l3.54,15.111   c-19.825,10.212-51.032,22.47-87.115,22.868l-23.021,0.254L212.001,297.904z"/>
	<path style="fill:#3EBD9E;" d="M122.756,270.12l4.423,1.539c9.274,3.226,18.617,6.208,27.77,8.862l22.577,6.548l-21.885,8.583   c-14.322,5.617-36.167,13.177-58.895,17.294l-28.163,5.102L122.756,270.12z"/>
	<path style="fill:#E46A53;" d="M42.998,224.391L8.005,130.903L83.003,194.9l183.887-37.781c7.146-1.543,14.554-2.333,21.94-2.333   c17.575,0,35,4.482,50.391,12.963l18.111,9.958l-33.616,30.189H219h104.719l-26.723,24.002l34.12,23.998H202h129.085l37.862,26.678   l-15.162,4.956c-23.578,7.708-50.1,11.616-78.825,11.616c-93.151,0-181.742-40.431-191.537-45.042l-0.266-0.125l-0.168-0.093   L31.532,297.81L8.008,317.884L42.998,224.391z"/>
	<path style="fill:#3EBD9E;" d="M130.511,181.45c-0.087-0.087-0.172-0.177-0.256-0.268L55.7,113.897l238.439,1.788   c16.071,0.129,29.886,10.578,34.381,26.002l6.622,22.75l-14.344-4.617c-10.379-3.341-21.135-5.035-31.969-5.035   c-7.388,0-14.771,0.784-21.944,2.33l-133.327,27.396L130.511,181.45z"/>
	<g>
		<circle cx="370" cy="223.9" r="8"/>
		<path d="M450.83,223.265c-0.47-2.28-1.93-4.25-3.97-5.37l-103.78-57.16c-0.26-0.14-0.53-0.27-0.79-0.42l-6.09-20.87    c-5.49-18.84-22.37-31.6-42-31.76l-238.44-1.79H55.7c-3.3,0-6.26,2.03-7.45,5.11c-1.21,3.09-0.37,6.61,2.09,8.83l66.44,59.96    l-31.56,6.48l-72.03-61.46c-2.77-2.37-6.79-2.56-9.78-0.47c-2.99,2.1-4.18,5.94-2.9,9.36l33.95,90.69l-33.95,90.69    c-1.28,3.41-0.09,7.26,2.9,9.35c1.38,0.97,2.99,1.45,4.59,1.45c1.85,0,3.7-0.64,5.19-1.91l71.09-60.66    c4.71,2.12,12.67,5.58,23.2,9.64l-41.78,36.95c-2.53,2.24-3.38,5.84-2.12,8.98c1.22,3.04,4.16,5.01,7.42,5.01h0.32    c46.85-1.88,96.8-24.42,106.57-29.03c6.41,1.53,13.03,2.98,19.81,4.31l-37.73,30.5c-2.5,2.02-3.54,5.34-2.66,8.42    c0.88,3.09,3.52,5.35,6.71,5.74c7.05,0.87,13.96,1.27,20.7,1.27c65.38,0,114.85-37.11,117.13-38.84c0.12-0.1,0.22-0.21,0.34-0.3    c63.04-5.59,112.46-31.15,147.15-76.18C450.76,227.935,451.31,225.555,450.83,223.265z M76.68,122.055l217.4,1.63    c12.5,0.1,23.26,8.23,26.76,20.24l2.41,8.28c-11.09-3.57-22.73-5.42-34.42-5.42c-7.95,0-15.93,0.85-23.63,2.51l-129.02,26.51    c-0.11-0.11-0.2-0.24-0.32-0.34L76.68,122.055z M95.32,305.075l29.23-25.86c8.48,2.95,17.93,6.02,28.17,8.99    C138.16,293.915,117.18,301.115,95.32,305.075z M186.17,329.075l30.86-24.95c0.51-0.42,0.94-0.88,1.32-1.38    c16.56,2.47,33.83,4.08,51.36,4.35C250.53,316.975,220.62,328.695,186.17,329.075z M274.96,291.145    c-92.4,0-181.82-41.31-188.13-44.28c-0.16-0.09-0.32-0.17-0.48-0.24c-2.83-1.31-6.17-0.85-8.54,1.18l-51.47,43.92l24.15-64.53    c0.68-1.81,0.68-3.8,0-5.61l-24.15-64.52l51.47,43.92c1.87,1.6,4.38,2.25,6.8,1.75l183.89-37.78c6.67-1.44,13.51-2.17,20.33-2.17    c16.22,0,32.32,4.14,46.53,11.97l8.24,4.53l-22.95,20.61H219c-4.42,0-8,3.59-8,8c0,4.42,3.58,8,8,8h83.84l-11.19,10.05    c-1.81,1.63-2.78,4-2.64,6.43c0.15,2.43,1.39,4.66,3.38,6.07l13.44,9.45H202c-4.42,0-8,3.59-8,8c0,4.42,3.58,8,8,8h126.55    l22.75,16.03C328.51,287.375,303.03,291.145,274.96,291.145z M369.32,273.045l-59.5-41.9l48.62-43.68l72.32,39.83    C413.78,247.155,393.25,262.425,369.32,273.045z"/>
	</g>
</g>















</svg>
